<svg xmlns="http://www.w3.org/2000/svg" viewBox="0 0 800 460" role="img" aria-labelledby="trendTitle">
  <title id="trendTitle">Trend question vitals over time</title>
  <rect width="800" height="460" fill="#faf9f6"/>
  <text x="400" y="36" text-anchor="middle" font-family="system-ui,sans-serif" font-size="18" font-weight="700" fill="#0b1b3d">Trend Items: Compare Across Time</text>
  <text x="400" y="58" text-anchor="middle" font-family="system-ui,sans-serif" font-size="12" fill="#52607a">Ask: improving, stable, or deteriorating?</text>

  <!-- Chart area -->
  <rect x="80" y="90" width="640" height="280" rx="12" fill="#fff" stroke="#e6e9ee"/>
  <text x="110" y="120" font-family="system-ui,sans-serif" font-size="12" font-weight="700" fill="#0b1b3d">SpO‚ %</text>

  <!-- Grid lines -->
  <line x1="140" y1="150" x2="680" y2="150" stroke="#e6e9ee"/>
  <line x1="140" y1="210" x2="680" y2="210" stroke="#e6e9ee"/>
  <line x1="140" y1="270" x2="680" y2="270" stroke="#e6e9ee"/>
  <line x1="140" y1="330" x2="680" y2="330" stroke="#e6e9ee"/>

  <!-- Labels -->
  <text x="120" y="155" text-anchor="end" font-family="system-ui,sans-serif" font-size="11" fill="#8a9bb8">98</text>
  <text x="120" y="215" text-anchor="end" font-family="system-ui,sans-serif" font-size="11" fill="#8a9bb8">94</text>
  <text x="120" y="275" text-anchor="end" font-family="system-ui,sans-serif" font-size="11" fill="#8a9bb8">90</text>
  <text x="120" y="335" text-anchor="end" font-family="system-ui,sans-serif" font-size="11" fill="#8a9bb8">86</text>

  <text x="200" y="355" text-anchor="middle" font-family="system-ui,sans-serif" font-size="11" fill="#52607a">0800</text>
  <text x="360" y="355" text-anchor="middle" font-family="system-ui,sans-serif" font-size="11" fill="#52607a">1200</text>
  <text x="520" y="355" text-anchor="middle" font-family="system-ui,sans-serif" font-size="11" fill="#52607a">1600</text>
  <text x="640" y="355" text-anchor="middle" font-family="system-ui,sans-serif" font-size="11" fill="#52607a">2000</text>

  <!-- Trend line (deteriorating) -->
  <polyline points="200,165 360,200 520,255 640,310" fill="none" stroke="#e76f51" stroke-width="4" stroke-linecap="round"/>
  <circle cx="200" cy="165" r="7" fill="#107c85"/>
  <circle cx="360" cy="200" r="7" fill="#107c85"/>
  <circle cx="520" cy="255" r="7" fill="#e76f51"/>
  <circle cx="640" cy="310" r="7" fill="#e76f51"/>

  <rect x="80" y="390" width="640" height="48" rx="8" fill="#fde8e2"/>
  <text x="400" y="420" text-anchor="middle" font-family="system-ui,sans-serif" font-size="13" fill="#0b1b3d">Downward SpO‚ trend = deteriorating respiratory status  prioritize intervention</text>
</svg>
